<?xml version="1.0" standalone="no"?>
<!DOCTYPE svg PUBLIC "-//W3C//DTD SVG 20010904//EN"
 "http://www.w3.org/TR/2001/REC-SVG-20010904/DTD/svg10.dtd">
<svg version="1.0" xmlns="http://www.w3.org/2000/svg"
 width="3456.000000pt" height="3456.000000pt" viewBox="0 0 3456.000000 3456.000000"
 preserveAspectRatio="xMidYMid meet">
<metadata>
Created by potrace 1.11, written by Peter Selinger 2001-2013
</metadata>
<g transform="translate(0.000000,3456.000000) scale(0.100000,-0.100000)"
fill="#000000" stroke="none">
<path d="M23009 27885 c-2 -2 -63 -6 -134 -10 -183 -9 -253 -13 -310 -19 -27
-3 -86 -8 -130 -11 -44 -3 -91 -8 -105 -10 -14 -2 -54 -7 -90 -10 -36 -4 -76
-8 -90 -10 -14 -2 -50 -7 -80 -10 -30 -4 -62 -9 -70 -10 -8 -1 -40 -6 -70 -10
-202 -25 -650 -107 -860 -157 -47 -11 -94 -21 -105 -24 -15 -3 -259 -67 -455
-119 -334 -88 -912 -297 -1333 -481 -309 -136 -771 -365 -909 -451 -21 -13
-40 -23 -42 -23 -3 0 -62 -34 -131 -75 -70 -41 -129 -75 -131 -75 -2 0 -30
-17 -62 -37 -31 -20 -73 -46 -92 -59 -155 -97 -388 -253 -500 -333 -136 -97
-421 -309 -430 -320 -3 -3 -50 -42 -105 -85 -55 -44 -127 -103 -160 -131 -33
-29 -71 -61 -85 -73 -312 -262 -667 -609 -1045 -1026 -6 -6 -63 -72 -126 -146
-494 -577 -920 -1200 -1284 -1875 -56 -103 -242 -475 -275 -550 -13 -27 -36
-79 -52 -115 -107 -233 -326 -787 -353 -890 -3 -8 -23 -69 -45 -135 -84 -248
-226 -758 -274 -985 -77 -366 -123 -614 -147 -795 -10 -81 -16 -120 -24 -165
-2 -14 -7 -50 -10 -80 -3 -30 -8 -71 -10 -90 -4 -33 -11 -101 -19 -195 -4 -36
-11 -115 -21 -235 -2 -25 -6 -99 -10 -165 -3 -66 -8 -160 -10 -210 -7 -124 -6
-664 0 -810 7 -172 14 -302 20 -360 2 -27 7 -90 10 -140 4 -49 8 -101 10 -115
2 -14 6 -52 9 -85 3 -33 7 -76 10 -95 3 -19 8 -57 10 -85 3 -27 10 -81 15
-120 6 -38 13 -90 16 -115 3 -25 7 -56 10 -70 5 -27 11 -62 20 -125 3 -23 8
-52 10 -65 3 -14 7 -38 10 -55 2 -16 9 -55 15 -85 6 -30 13 -71 16 -90 13 -85
118 -542 164 -715 156 -584 335 -1085 600 -1680 55 -123 255 -523 325 -650 43
-77 90 -162 105 -190 15 -27 67 -115 115 -195 48 -80 93 -154 99 -165 44 -76
358 -545 390 -582 6 -6 22 -28 36 -48 40 -57 243 -326 265 -351 6 -7 26 -31
45 -55 313 -388 650 -752 1020 -1099 73 -69 138 -129 144 -135 6 -5 49 -44 96
-85 126 -112 261 -226 385 -324 61 -49 119 -95 130 -105 95 -78 418 -309 610
-438 192 -128 470 -303 482 -303 3 0 17 -8 31 -19 15 -10 50 -31 77 -47 28
-15 115 -64 195 -108 273 -153 773 -393 1035 -498 55 -22 114 -46 130 -53 40
-19 407 -155 520 -193 216 -74 416 -135 625 -191 63 -17 131 -36 150 -41 42
-12 318 -77 357 -85 34 -6 47 -9 138 -29 135 -29 456 -87 564 -101 98 -13 176
-24 211 -30 8 -1 46 -6 83 -10 37 -3 76 -8 86 -10 10 -2 54 -6 97 -10 44 -4
93 -8 109 -10 17 -2 64 -7 105 -10 41 -3 91 -8 110 -10 19 -2 100 -7 180 -11
80 -3 172 -8 205 -10 81 -4 721 -4 815 0 202 9 377 21 485 31 28 3 77 7 110
10 84 7 154 14 195 20 19 3 58 7 85 10 28 3 66 8 85 10 19 3 55 8 80 11 25 3
56 7 70 9 14 2 45 7 70 10 25 3 52 8 60 10 8 2 35 7 60 10 37 5 247 42 342 61
13 2 39 7 58 10 19 4 42 8 50 10 12 3 143 31 225 49 75 16 447 113 575 151
504 147 1075 361 1510 566 228 108 614 304 644 327 6 4 40 23 76 42 36 18 76
41 90 50 14 9 104 63 200 120 96 57 180 107 185 111 6 4 92 62 193 128 221
146 308 207 520 368 191 144 524 413 572 462 3 3 41 37 84 75 44 39 87 77 96
85 9 8 48 44 86 79 244 225 634 630 832 865 24 28 63 74 87 101 401 469 867
1150 1170 1710 21 39 51 94 67 124 35 63 228 448 228 454 0 2 25 57 55 121 30
64 55 118 55 121 0 2 14 34 30 71 161 352 377 965 501 1427 56 209 138 556
163 687 3 14 14 75 26 135 11 61 23 126 26 145 2 19 7 46 9 60 3 14 7 41 10
60 3 19 8 47 11 62 3 15 7 42 9 60 3 18 12 85 21 148 8 63 17 135 20 160 3 40
6 68 19 175 14 110 25 266 42 545 15 265 7 1174 -12 1290 -2 14 -6 66 -10 115
-8 135 -20 264 -30 330 -3 17 -7 53 -9 80 -3 28 -10 84 -16 125 -14 99 -19
137 -25 185 -2 22 -7 51 -10 65 -3 14 -8 45 -11 70 -3 25 -8 54 -10 65 -2 11
-13 70 -24 130 -11 61 -22 121 -25 135 -3 14 -7 36 -10 50 -3 14 -7 36 -10 50
-7 30 -24 116 -31 150 -24 118 -130 537 -165 650 -11 36 -22 72 -24 80 -25
107 -255 773 -310 895 -7 17 -27 64 -43 105 -134 337 -448 984 -579 1192 -12
21 -23 40 -23 43 0 2 -18 34 -40 70 -22 36 -40 67 -40 70 0 2 -46 77 -101 167
-375 603 -777 1131 -1259 1653 -81 89 -494 500 -581 580 -222 204 -470 414
-689 584 -80 62 -152 118 -160 124 -99 78 -444 317 -625 432 -27 18 -75 48
-105 67 -94 61 -368 221 -525 308 -264 146 -917 458 -1035 495 -14 4 -53 21
-88 36 -34 16 -67 29 -72 29 -6 0 -18 4 -28 10 -62 35 -616 226 -885 304 -485
143 -1115 277 -1552 330 -22 3 -56 8 -75 11 -19 3 -55 7 -80 9 -42 4 -100 11
-180 21 -19 3 -71 7 -115 10 -44 4 -96 8 -115 10 -19 2 -78 7 -130 10 -52 4
-126 9 -165 12 -82 6 -991 14 -996 8z m726 -900 c132 -3 260 -8 285 -10 25 -2
88 -6 140 -9 52 -4 106 -8 120 -10 14 -3 62 -7 107 -11 46 -3 91 -8 100 -9 10
-2 50 -7 88 -10 39 -4 77 -9 85 -11 8 -2 40 -6 70 -10 30 -3 100 -12 155 -21
55 -8 114 -17 130 -20 17 -2 55 -9 85 -14 30 -6 69 -13 85 -16 61 -11 182 -34
255 -50 41 -8 86 -17 100 -20 382 -77 1204 -333 1537 -479 18 -8 48 -22 67
-30 19 -8 37 -15 40 -15 3 0 25 -9 49 -19 93 -43 158 -71 161 -71 18 0 501
-239 645 -319 50 -28 93 -51 95 -51 3 0 26 -13 53 -29 26 -16 126 -75 221
-132 95 -57 185 -111 200 -119 14 -8 31 -19 37 -23 5 -5 66 -45 135 -91 70
-45 157 -104 195 -131 39 -27 84 -58 100 -69 17 -12 32 -23 35 -26 3 -3 38
-29 79 -58 40 -29 78 -58 85 -63 6 -5 38 -30 71 -55 70 -53 90 -69 250 -199
126 -103 321 -274 440 -384 129 -121 480 -475 579 -586 55 -60 115 -128 135
-150 111 -123 364 -437 503 -626 412 -559 803 -1230 1058 -1819 18 -41 41 -93
51 -116 10 -22 28 -65 39 -95 12 -30 28 -67 35 -84 69 -154 217 -580 320 -917
22 -75 101 -374 110 -418 2 -8 10 -42 19 -75 15 -59 69 -308 81 -376 4 -19 13
-70 21 -114 18 -98 41 -235 48 -295 4 -25 8 -56 10 -70 9 -49 26 -176 31 -230
3 -30 8 -66 10 -80 2 -14 6 -59 10 -100 3 -41 8 -93 10 -115 3 -22 7 -74 10
-115 2 -41 7 -109 10 -150 14 -201 20 -752 10 -970 -10 -225 -30 -526 -40
-600 -3 -19 -7 -60 -10 -90 -3 -30 -7 -66 -10 -80 -2 -14 -7 -50 -10 -80 -4
-30 -15 -113 -25 -185 -11 -71 -22 -148 -25 -170 -3 -22 -10 -63 -16 -91 -5
-28 -12 -64 -15 -80 -41 -238 -141 -672 -204 -884 -17 -58 -38 -130 -46 -160
-8 -30 -18 -62 -21 -70 -3 -8 -7 -19 -8 -25 -11 -47 -156 -468 -175 -510 -5
-11 -21 -51 -35 -90 -14 -38 -30 -79 -35 -90 -5 -11 -19 -45 -31 -75 -11 -30
-27 -71 -36 -90 -8 -19 -19 -44 -23 -55 -162 -384 -397 -842 -628 -1225 -135
-224 -533 -809 -571 -840 -3 -3 -26 -32 -51 -65 -24 -33 -49 -65 -55 -71 -5
-7 -22 -27 -36 -45 -39 -50 -232 -283 -238 -289 -3 -3 -37 -41 -76 -85 -158
-181 -473 -506 -646 -666 -92 -85 -120 -111 -215 -195 -55 -49 -122 -107 -148
-129 -27 -22 -54 -45 -60 -50 -6 -6 -56 -47 -111 -90 -55 -44 -102 -83 -105
-86 -10 -12 -329 -248 -440 -326 -180 -126 -505 -336 -619 -399 -18 -10 -41
-23 -50 -29 -162 -100 -553 -303 -836 -435 -127 -59 -333 -148 -435 -187 -36
-14 -99 -39 -140 -55 -193 -76 -550 -196 -770 -260 -83 -24 -571 -150 -603
-156 -60 -11 -84 -15 -97 -18 -88 -19 -375 -74 -401 -78 -19 -2 -81 -11 -139
-20 -58 -8 -127 -18 -155 -22 -27 -3 -58 -8 -69 -10 -10 -2 -44 -6 -75 -9 -31
-3 -72 -8 -91 -10 -129 -15 -181 -20 -330 -31 -47 -3 -103 -7 -125 -9 -275
-23 -947 -23 -1240 0 -27 2 -93 6 -145 10 -91 6 -132 10 -230 20 -161 17 -236
26 -264 31 -18 2 -48 6 -67 8 -35 4 -119 16 -154 22 -11 2 -40 7 -65 10 -25 3
-54 8 -65 10 -11 3 -38 7 -60 10 -22 3 -116 22 -210 41 -93 19 -183 37 -200
40 -91 15 -497 119 -665 169 -543 163 -1035 354 -1515 588 -288 140 -501 257
-872 481 -225 136 -769 520 -927 656 -12 10 -32 27 -45 38 -13 12 -27 21 -30
21 -3 0 -24 17 -47 38 -23 20 -63 55 -90 77 -156 129 -424 377 -622 575 -363
365 -685 744 -1007 1185 -187 257 -456 684 -630 1000 -96 176 -298 585 -359
730 -26 61 -51 118 -56 127 -40 71 -301 776 -326 877 -2 9 -28 99 -59 201 -30
102 -57 194 -59 205 -3 11 -23 92 -45 180 -23 88 -43 169 -45 180 -13 66 -37
179 -40 184 -2 3 -7 24 -10 46 -3 22 -8 51 -11 65 -13 61 -16 82 -36 195 -11
66 -24 145 -29 175 -6 30 -12 79 -16 108 -3 29 -7 63 -10 75 -5 30 -27 213
-39 332 -12 123 -14 142 -20 235 -4 52 -8 114 -10 137 -23 250 -23 871 0 1228
10 169 30 400 40 465 2 14 6 54 10 90 3 36 10 92 15 125 5 33 12 78 15 100 2
22 7 51 9 65 3 14 7 43 11 65 6 42 51 301 60 345 10 46 15 75 20 105 3 17 24
107 46 200 22 94 42 179 44 190 2 11 13 54 24 95 12 41 26 95 33 120 15 56 12
47 28 100 7 25 14 50 16 57 17 88 261 786 324 928 10 22 43 99 73 170 117 276
306 660 439 896 30 52 57 102 61 110 37 80 378 609 516 799 18 25 40 56 49 69
51 71 228 301 306 396 102 126 247 298 256 305 4 3 28 30 55 60 201 230 586
612 815 810 41 36 77 67 80 70 3 3 34 30 70 60 36 30 67 57 70 60 27 28 377
301 494 385 15 11 47 34 70 51 55 41 396 271 466 314 190 117 362 220 366 220
2 0 56 29 119 65 156 89 437 231 625 316 85 39 174 79 197 90 345 156 894 347
1383 480 25 7 50 14 55 15 88 24 407 96 545 123 132 26 202 38 370 66 58 10
320 45 375 50 33 3 71 8 85 10 14 2 54 7 90 10 36 3 88 8 115 10 28 3 91 8
140 11 50 3 106 7 125 9 19 2 159 7 310 11 151 4 276 8 278 9 1 1 17 1 35 -1
17 -1 140 -5 272 -9z"/>
<path d="M20498 21615 c-1 -1 -21 -5 -44 -8 -172 -24 -364 -166 -450 -332 -36
-70 -47 -100 -71 -200 -2 -11 -6 -63 -7 -115 -6 -204 69 -383 215 -514 86 -78
193 -129 313 -152 39 -8 213 -7 246 1 14 3 41 8 60 11 53 9 158 53 220 92 60
38 159 137 180 180 8 15 19 34 26 42 17 22 51 119 60 171 15 81 9 269 -10 344
-62 239 -248 420 -481 468 -60 12 -247 21 -257 12z"/>
<path d="M16822 21309 c-8 -7 -88 -50 -222 -121 -47 -25 -117 -62 -155 -83
-39 -21 -97 -52 -130 -70 -33 -18 -105 -56 -160 -85 -55 -29 -104 -56 -110
-60 -5 -4 -68 -38 -140 -75 -71 -38 -155 -82 -185 -98 -30 -16 -91 -49 -135
-73 -44 -23 -118 -63 -165 -88 -47 -25 -138 -74 -202 -108 -72 -38 -118 -69
-118 -78 0 -8 14 -67 31 -130 16 -63 31 -122 33 -130 43 -168 119 -467 120
-475 1 -5 6 -25 10 -42 l8 -33 81 44 c86 46 636 343 745 402 79 43 155 84 312
169 69 37 154 83 188 102 35 19 69 32 75 30 9 -3 12 -863 12 -3481 -1 -1912 2
-3477 5 -3477 3 -1 236 -2 518 -3 338 -1 512 2 513 9 5 32 3 7955 -1 7956 -24
5 -923 3 -928 -2z"/>
<path d="M29365 20914 c-132 -36 -248 -67 -258 -69 -9 -2 -67 -18 -127 -35
-60 -17 -118 -33 -127 -35 -18 -3 -232 -61 -265 -71 -17 -5 -18 -48 -18 -715
l0 -709 -337 0 c-186 1 -393 1 -460 0 l-123 0 0 -410 0 -410 460 0 460 0 1
-1682 c1 -926 2 -1710 4 -1743 5 -127 16 -311 20 -325 2 -8 6 -35 9 -60 6 -56
23 -168 30 -195 2 -11 11 -54 20 -95 21 -101 76 -268 119 -361 92 -203 299
-437 478 -544 159 -94 372 -173 539 -199 19 -3 49 -8 65 -11 146 -25 465 -24
705 1 71 7 285 42 330 54 19 5 40 10 45 11 11 2 129 43 157 54 18 7 18 40 -7
405 -2 36 -7 108 -10 160 -6 115 -16 244 -18 247 -1 0 -39 -7 -84 -17 -77 -17
-125 -24 -228 -36 -22 -2 -59 -6 -81 -9 -78 -10 -329 -7 -398 5 -275 44 -463
210 -555 488 -24 74 -57 226 -65 302 -4 30 -9 78 -12 105 -7 54 -12 3412 -6
3432 3 9 166 12 685 12 375 0 721 0 770 1 l87 0 0 409 0 410 -767 0 c-470 0
-769 4 -772 10 -3 5 -6 388 -6 850 1 575 -3 841 -10 840 -5 0 -118 -30 -250
-65z"/>
<path d="M25008 19415 c-2 -1 -61 -5 -133 -8 -71 -3 -141 -8 -155 -11 -14 -2
-48 -7 -75 -10 -136 -15 -365 -74 -520 -133 -122 -47 -309 -143 -370 -190 -5
-5 -23 -17 -40 -27 -90 -56 -270 -221 -340 -310 -16 -21 -38 -48 -49 -60 -70
-81 -193 -315 -241 -460 -60 -178 -80 -310 -80 -526 0 -171 6 -232 36 -347 94
-369 338 -686 729 -949 237 -159 373 -225 905 -434 382 -151 585 -269 750
-435 124 -124 188 -238 221 -389 29 -131 27 -344 -5 -450 -102 -343 -350 -540
-786 -627 -158 -32 -428 -33 -665 -3 -103 13 -332 69 -471 115 -213 71 -404
156 -563 252 l-60 36 -56 -172 c-32 -95 -92 -276 -134 -403 -42 -127 -76 -235
-76 -240 0 -10 197 -112 295 -154 105 -45 380 -133 483 -155 9 -2 50 -11 89
-19 72 -15 106 -22 161 -30 140 -22 175 -26 227 -30 33 -3 89 -8 125 -12 85
-9 465 -9 558 0 72 6 120 11 205 21 75 8 254 43 354 70 250 66 555 205 705
322 20 15 47 36 60 45 114 83 253 230 342 363 86 127 191 354 211 454 2 9 10
43 18 76 52 201 59 631 13 782 -3 10 -8 32 -10 48 -7 41 -50 181 -71 230 -125
296 -353 559 -660 759 -227 148 -427 247 -790 391 -527 208 -745 325 -906 487
-140 140 -199 274 -207 474 -5 143 12 239 63 351 190 413 672 577 1350 458
228 -40 549 -158 724 -265 26 -17 53 -30 59 -30 6 0 16 17 22 38 6 20 14 44
17 52 6 17 160 462 204 592 17 48 28 92 25 96 -9 15 -247 129 -346 166 -173
64 -369 119 -525 146 -33 5 -71 12 -85 15 -14 3 -50 8 -80 11 -30 2 -65 7 -76
9 -31 7 -371 25 -376 20z"/>
<path d="M20057 16323 c1 -1625 4 -2960 6 -2967 3 -8 142 -11 528 -10 288 1
529 2 535 3 8 1 11 842 11 2966 l0 2964 -541 0 -541 0 2 -2956z"/>
<path d="M10415 20280 c0 -1421 -2 -1770 -13 -1770 -7 0 -29 26 -49 57 -20 32
-40 62 -45 68 -83 107 -112 141 -172 200 -133 132 -271 234 -440 324 -113 61
-316 141 -421 167 -59 15 -154 37 -170 39 -106 19 -147 25 -190 30 -27 3 -70
8 -95 11 -52 6 -396 7 -425 1 -11 -3 -51 -8 -89 -12 -77 -8 -88 -10 -196 -30
-111 -21 -110 -21 -216 -54 -361 -111 -631 -258 -919 -501 -96 -81 -303 -302
-370 -395 -11 -16 -25 -33 -31 -39 -30 -31 -172 -260 -233 -377 -138 -265
-246 -560 -302 -824 -7 -33 -14 -64 -15 -70 -1 -5 -5 -27 -9 -49 -7 -43 -12
-69 -20 -106 -3 -14 -7 -41 -9 -60 -2 -19 -7 -55 -10 -80 -22 -151 -31 -313
-31 -570 1 -278 2 -311 22 -470 7 -63 16 -133 18 -155 3 -22 9 -62 15 -90 5
-27 12 -61 14 -75 43 -245 144 -552 266 -806 303 -630 823 -1105 1430 -1307
190 -64 302 -88 535 -116 87 -10 393 -11 469 0 31 4 86 10 123 14 37 3 69 8
72 10 3 1 22 6 42 9 58 9 198 43 284 69 430 131 834 415 1089 765 62 85 110
161 139 218 26 52 52 81 60 67 3 -4 8 -78 11 -163 4 -85 9 -189 11 -230 2 -41
7 -138 10 -215 4 -77 8 -174 10 -215 2 -41 5 -103 6 -137 1 -35 7 -64 13 -66
6 -2 223 -3 481 -3 l470 1 -1 75 c0 41 -4 134 -9 205 -26 417 -28 858 -29
4632 l-1 3793 -540 0 -540 0 0 -1770z m-1395 -1725 c447 -65 796 -271 1061
-625 77 -103 99 -139 165 -273 53 -106 109 -274 133 -397 20 -104 22 -115 28
-205 9 -119 9 -1328 0 -1430 -11 -122 -19 -170 -61 -335 -2 -8 -14 -42 -25
-75 -12 -33 -26 -74 -32 -92 -20 -64 -127 -263 -194 -359 -86 -122 -239 -279
-365 -373 -200 -149 -491 -265 -745 -297 -74 -10 -329 -10 -410 -1 -548 61
-986 368 -1251 877 -84 160 -168 385 -199 530 -2 8 -10 44 -19 80 -8 36 -17
79 -19 95 -4 28 -7 44 -22 130 -3 17 -8 59 -11 95 -3 36 -9 96 -13 135 -8 76
-6 450 3 530 3 28 8 75 11 105 5 53 15 129 20 160 2 8 6 35 10 60 9 59 75 332
83 345 4 5 7 15 8 20 7 32 47 143 84 230 184 430 472 749 835 924 103 50 263
106 350 122 28 5 61 11 75 14 14 3 52 8 85 11 33 3 61 7 63 9 6 5 306 -3 352
-10z"/>
<path d="M2818 21445 c-2 -2 -47 -6 -101 -10 -53 -3 -107 -8 -120 -10 -12 -2
-44 -6 -72 -10 -87 -11 -229 -36 -335 -60 -123 -27 -415 -117 -485 -150 -16
-7 -53 -23 -82 -34 -108 -42 -356 -169 -445 -227 -21 -13 -42 -24 -48 -24 -5
0 -10 -4 -10 -10 0 -5 -4 -10 -10 -10 -14 0 -257 -172 -313 -222 l-49 -43 42
-90 c23 -49 80 -175 127 -280 47 -104 93 -208 103 -230 10 -22 30 -66 44 -98
l26 -58 37 28 c21 15 47 36 58 46 69 64 351 242 520 329 210 108 534 216 725
242 8 1 42 6 75 10 33 4 74 9 90 12 39 5 303 5 375 -1 235 -18 432 -65 615
-148 151 -68 281 -159 388 -271 202 -211 319 -473 373 -836 21 -139 21 -449 0
-570 -3 -14 -7 -42 -10 -63 -10 -66 -37 -190 -56 -257 -29 -102 -61 -204 -69
-215 -4 -5 -13 -28 -20 -50 -8 -22 -36 -86 -63 -143 -26 -57 -48 -105 -48
-106 0 -10 -149 -270 -201 -352 -58 -90 -255 -372 -269 -384 -3 -3 -37 -45
-75 -95 -38 -49 -89 -115 -114 -145 -26 -30 -53 -63 -61 -73 -8 -11 -24 -29
-35 -41 -11 -11 -40 -46 -65 -76 -25 -30 -54 -64 -65 -76 -11 -11 -49 -54 -85
-94 -36 -40 -78 -88 -95 -106 -16 -17 -79 -85 -140 -150 -122 -133 -894 -906
-1110 -1113 -118 -113 -443 -427 -719 -695 -39 -38 -167 -161 -284 -275 l-212
-206 2 -330 3 -330 2543 0 2542 0 0 447 0 447 -1717 0 c-945 0 -1751 1 -1790
1 -84 0 -91 10 -40 54 17 15 61 56 97 90 56 52 183 169 295 271 236 216 690
659 1023 1000 277 284 486 510 703 765 151 177 270 328 460 585 174 237 396
625 514 901 42 96 141 376 150 422 1 9 10 44 18 77 9 33 18 71 20 85 3 14 12
59 20 100 14 67 19 99 33 215 25 217 21 472 -10 696 -134 944 -738 1626 -1643
1854 -73 19 -147 36 -165 39 -18 3 -42 7 -53 10 -11 2 -47 7 -80 11 -32 4 -68
9 -78 11 -65 12 -568 29 -579 19z"/>
</g>
</svg>
