<?xml version="1.0" encoding="utf-8"?>
<!-- Generator: Adobe Illustrator 17.1.0, SVG Export Plug-In . SVG Version: 6.00 Build 0)  -->
<!DOCTYPE svg PUBLIC "-//W3C//DTD SVG 1.1//EN" "http://www.w3.org/Graphics/SVG/1.1/DTD/svg11.dtd">
<svg version="1.1" id="Layer_1" xmlns="http://www.w3.org/2000/svg" xmlns:xlink="http://www.w3.org/1999/xlink" x="0px" y="0px"
	 viewBox="0 0 3456 2592" enable-background="new 0 0 3456 2592" xml:space="preserve">
<g>
	<path fill="#231F20" d="M2342.9,2382.3c-146.6,0-288.9-28.7-422.9-85.4c-64.4-27.2-126.5-60.9-184.6-100.2
		c-57.5-38.9-111.6-83.5-160.7-132.6c-49.1-49.1-93.8-103.2-132.6-160.7c-39.2-58.1-72.9-120.2-100.2-184.6
		c-56.7-134-85.4-276.2-85.4-422.9c0-146.6,28.7-288.9,85.4-422.9c27.2-64.4,60.9-126.5,100.2-184.6
		c38.9-57.5,83.5-111.6,132.6-160.7c49.1-49.1,103.2-93.8,160.7-132.6c58.1-39.2,120.2-72.9,184.6-100.2
		c134-56.7,276.2-85.4,422.9-85.4s288.9,28.7,422.9,85.4c64.4,27.2,126.5,60.9,184.6,100.2c57.5,38.9,111.6,83.5,160.7,132.6
		c49.1,49.1,93.8,103.2,132.6,160.7c39.2,58.1,72.9,120.2,100.2,184.6c56.7,134,85.4,276.2,85.4,422.9
		c0,146.6-28.7,288.9-85.4,422.9c-27.2,64.4-60.9,126.5-100.2,184.6c-38.9,57.5-83.5,111.6-132.6,160.7
		c-49.1,49.1-103.2,93.8-160.7,132.6c-58.1,39.2-120.2,72.9-184.6,100.2C2631.8,2353.6,2489.5,2382.3,2342.9,2382.3z M2342.9,349.7
		c-127.8,0-251.7,25-368.3,74.3c-112.7,47.7-213.9,115.9-300.8,202.8c-86.9,86.9-155.2,188.1-202.8,300.8
		c-49.3,116.6-74.3,240.5-74.3,368.3s25,251.7,74.3,368.3c47.7,112.7,115.9,213.9,202.8,300.8c86.9,86.9,188.1,155.2,300.8,202.8
		c116.6,49.3,240.5,74.3,368.3,74.3s251.7-25,368.3-74.3c112.7-47.7,213.9-115.9,300.8-202.8c86.9-86.9,155.2-188.1,202.8-300.8
		c49.3-116.6,74.3-240.5,74.3-368.3s-25-251.7-74.3-368.3C3167.2,815,3099,713.8,3012,626.9c-86.9-86.9-188.1-155.2-300.8-202.8
		C2594.6,374.7,2470.7,349.7,2342.9,349.7z"/>
</g>
<g enable-background="new    ">
	<path fill="#231F20" d="M1671.3,1058.1h-2.5l-152,72.3l-30.7-139.8l210.9-98.1h154.5v796.9h-180.2V1058.1z"/>
</g>
<g enable-background="new    ">
	<path fill="#231F20" d="M1203.4,819v691.5c0,67.4,2.5,138.5,4.9,179h-165.5l-8.6-88.3h-2.5c-38,67.4-110.3,101.8-187.6,101.8
		C702,1703,588,1581.6,588,1395.2c-1.2-202.3,125.1-318.8,268.5-318.8c73.6,0,131.2,25.7,158.2,67.4h2.5V819H1203.4z M1017.1,1343.7
		c0-9.8-1.2-23.3-2.5-33.1c-11-50.3-51.5-92-109.1-92c-84.6,0-128.7,76-128.7,170.4c0,101.8,50.3,165.5,127.5,165.5
		c53.9,0,96.9-36.8,107.9-89.5c3.7-13.5,4.9-27,4.9-42.9V1343.7z"/>
</g>
<g enable-background="new    ">
	<path fill="#231F20" d="M51.5,1689.5v-112.8l103-93.2c174.1-155.7,258.7-245.2,261.1-338.4c0-65-39.2-116.5-131.2-116.5
		c-68.7,0-128.7,34.3-170.4,66.2L61.3,961.2c60.1-45.4,153.3-82.1,261.1-82.1c180.2,0,279.5,105.4,279.5,250.1
		c0,133.6-96.9,240.3-212.1,343.3l-73.6,61.3v2.5h300.4v153.3H51.5z"/>
</g>
<g enable-background="new    ">
	<path fill="#231F20" d="M2183.5,923.2c0,51.5-39.2,93.2-100.5,93.2c-58.8,0-98.1-41.7-96.9-93.2c-1.2-53.9,38-94.4,98.1-94.4
		C2144.3,828.8,2182.3,869.3,2183.5,923.2z M1991.1,1689.5V1090h186.4v599.5H1991.1z"/>
</g>
<g enable-background="new    ">
	<path fill="#231F20" d="M2308.4,1526.4c34.3,20.8,105.4,45.4,160.6,45.4c56.4,0,79.7-19.6,79.7-50.3s-18.4-45.4-88.3-68.7
		c-123.8-41.7-171.6-109.1-170.4-180.2c0-111.6,95.6-196.2,244-196.2c69.9,0,132.4,15.9,169.2,34.3l-33.1,128.7
		c-27-14.7-78.5-34.3-130-34.3c-45.4,0-71.1,18.4-71.1,49c0,28.2,23.3,42.9,96.9,68.7c114,39.2,161.8,96.9,163.1,185.1
		c0,111.6-88.3,193.7-259.9,193.7c-78.5,0-148.3-17.2-193.7-41.7L2308.4,1526.4z"/>
</g>
<g enable-background="new    ">
	<path fill="#231F20" d="M3026.4,918.3V1090H3160v137.3h-133.6v217c0,72.3,17.2,105.4,73.6,105.4c23.3,0,41.7-2.5,55.2-4.9l1.2,141
		c-24.5,9.8-68.7,15.9-121.4,15.9c-60.1,0-110.3-20.8-139.8-51.5c-34.3-35.6-51.5-93.2-51.5-177.8v-245.2H2764V1090h79.7V960
		L3026.4,918.3z"/>
</g>
</svg>
