<?xml version="1.0" encoding="utf-8"?>
<!-- Generator: Adobe Illustrator 17.1.0, SVG Export Plug-In . SVG Version: 6.00 Build 0)  -->
<!DOCTYPE svg PUBLIC "-//W3C//DTD SVG 1.1//EN" "http://www.w3.org/Graphics/SVG/1.1/DTD/svg11.dtd">
<svg version="1.1" id="Layer_1" xmlns="http://www.w3.org/2000/svg" xmlns:xlink="http://www.w3.org/1999/xlink" x="0px" y="0px"
	 viewBox="0 0 3456 2592" enable-background="new 0 0 3456 2592" xml:space="preserve">
<g>
	<path fill="#231F20" d="M2342.9,2357.3c-143.3,0-282.2-28.1-413.1-83.4c-126.4-53.5-239.9-130-337.3-227.4
		c-97.5-97.5-174-210.9-227.4-337.3c-55.4-130.9-83.4-269.9-83.4-413.1s28.1-282.2,83.4-413.1c53.5-126.4,130-239.9,227.4-337.3
		s210.9-174,337.3-227.4c130.9-55.4,269.9-83.4,413.1-83.4s282.2,28.1,413.1,83.4c126.4,53.5,239.9,130,337.3,227.4
		c97.5,97.5,174,210.9,227.4,337.3c55.4,130.9,83.4,269.9,83.4,413.1s-28.1,282.2-83.4,413.1c-53.5,126.4-130,239.9-227.4,337.3
		c-97.5,97.5-210.9,174-337.3,227.4C2625.2,2329.2,2486.2,2357.3,2342.9,2357.3z M2342.9,324.7c-131.1,0-258.3,25.7-378.1,76.3
		c-115.7,48.9-219.5,119-308.8,208.2c-89.2,89.2-159.3,193.1-208.2,308.8c-50.6,119.7-76.3,246.9-76.3,378.1
		c0,131.1,25.7,258.3,76.3,378.1c48.9,115.7,119,219.5,208.2,308.8c89.2,89.2,193.1,159.3,308.8,208.2
		c119.7,50.6,246.9,76.3,378.1,76.3s258.3-25.7,378.1-76.3c115.7-48.9,219.5-119,308.8-208.2c89.2-89.2,159.3-193.1,208.2-308.8
		c50.6-119.7,76.3-246.9,76.3-378.1c0-131.1-25.7-258.3-76.3-378.1c-48.9-115.7-119-219.5-208.2-308.8
		C2940.5,520,2836.6,449.9,2721,401C2601.3,350.4,2474.1,324.7,2342.9,324.7z"/>
</g>
<g enable-background="new    ">
	<path fill="#231F20" d="M1671.3,993.1h-2.5l-138.5,74.8l-20.8-82.1l174.1-93.2h92v796.9h-104.2V993.1z"/>
</g>
<g enable-background="new    ">
	<path fill="#231F20" d="M1149.5,819v717.2c0,52.7,1.2,112.8,4.9,153.3h-96.9l-4.9-103h-2.5c-33.1,66.2-105.4,116.5-202.3,116.5
		c-143.4,0-253.8-121.4-253.8-301.6c-1.2-197.4,121.4-318.8,266-318.8c90.7,0,152,42.9,179,90.7h2.5V819H1149.5z M1041.6,1337.6
		c0-13.5-1.2-31.9-4.9-45.4c-15.9-68.7-74.8-125.1-155.7-125.1c-111.6,0-177.8,98.1-177.8,229.3c0,120.1,58.8,219.5,175.3,219.5
		c72.3,0,138.5-47.8,158.2-128.7c3.7-14.7,4.9-29.4,4.9-46.6V1337.6z"/>
</g>
<g enable-background="new    ">
	<path fill="#231F20" d="M55.2,1689.5v-66.2l84.6-82.1c203.5-193.7,295.5-296.7,296.7-416.8c0-80.9-39.2-155.7-158.2-155.7
		c-72.3,0-132.4,36.8-169.2,67.4l-34.3-76c55.2-46.6,133.6-80.9,225.6-80.9c171.6,0,244,117.7,244,231.7
		c0,147.1-106.7,266-274.6,427.9l-63.8,58.8v2.5h358v89.5H55.2z"/>
</g>
<g enable-background="new    ">
	<path fill="#231F20" d="M2125.9,929.3c1.2,36.8-25.7,66.2-68.7,66.2c-38,0-65-29.4-65-66.2c0-38,28.2-67.4,67.4-67.4
		C2100.2,861.9,2125.9,891.3,2125.9,929.3z M2005.8,1689.5v-593.4h107.9v593.4H2005.8z"/>
</g>
<g enable-background="new    ">
	<path fill="#231F20" d="M2309.6,1579.1c31.9,20.8,88.3,42.9,142.2,42.9c78.5,0,115.2-39.2,115.2-88.3c0-51.5-30.7-79.7-110.3-109.1
		c-106.7-38-156.9-96.9-156.9-168c0-95.6,77.2-174.1,204.7-174.1c60.1,0,112.8,17.2,145.9,36.8l-27,78.5
		c-23.3-14.7-66.2-34.3-121.4-34.3c-63.8,0-99.3,36.8-99.3,80.9c0,49,35.6,71.1,112.8,100.5c103,39.2,155.7,90.7,155.7,179
		c0,104.2-80.9,177.8-221.9,177.8c-65,0-125.1-15.9-166.7-40.5L2309.6,1579.1z"/>
</g>
<g enable-background="new    ">
	<path fill="#231F20" d="M2962.6,925.7v170.4h154.5v82.1h-154.5v320c0,73.6,20.8,115.2,80.9,115.2c28.2,0,49-3.7,62.5-7.4l4.9,80.9
		c-20.8,8.6-53.9,14.7-95.6,14.7c-50.3,0-90.7-15.9-116.5-45.4c-30.7-31.9-41.7-84.6-41.7-154.5v-323.7h-92v-82.1h92V953.9
		L2962.6,925.7z"/>
</g>
</svg>
