<?xml version="1.0" encoding="utf-8"?>
<!-- Generator: Adobe Illustrator 17.1.0, SVG Export Plug-In . SVG Version: 6.00 Build 0)  -->
<!DOCTYPE svg PUBLIC "-//W3C//DTD SVG 1.1//EN" "http://www.w3.org/Graphics/SVG/1.1/DTD/svg11.dtd">
<svg version="1.1" id="Layer_1" xmlns="http://www.w3.org/2000/svg" xmlns:xlink="http://www.w3.org/1999/xlink" x="0px" y="0px"
	 viewBox="6.1 101.5 3500 2300" enable-background="new 6.1 101.5 3500 2300" xml:space="preserve">
<g enable-background="new    ">
	<path fill="#231F20" d="M1671.3,1058.1h-2.5l-152,72.3l-30.7-139.8l210.9-98.1h154.5v796.9h-180.2L1671.3,1058.1L1671.3,1058.1z"/>
</g>
<g enable-background="new    ">
	<path fill="#231F20" d="M1203.4,819v691.5c0,67.4,2.5,138.5,4.9,179h-165.5l-8.6-88.3h-2.5c-38,67.4-110.3,101.8-187.6,101.8
		C702,1703,588,1581.6,588,1395.2c-1.2-202.3,125.1-318.8,268.5-318.8c73.6,0,131.2,25.7,158.2,67.4h2.5V819H1203.4z M1017.1,1343.7
		c0-9.8-1.2-23.3-2.5-33.1c-11-50.3-51.5-92-109.1-92c-84.6,0-128.7,76-128.7,170.4c0,101.8,50.3,165.5,127.5,165.5
		c53.9,0,96.9-36.8,107.9-89.5c3.7-13.5,4.9-27,4.9-42.9L1017.1,1343.7L1017.1,1343.7z"/>
</g>
<g enable-background="new    ">
	<path fill="#231F20" d="M51.5,1689.5v-112.8l103-93.2c174.1-155.7,258.7-245.2,261.1-338.4c0-65-39.2-116.5-131.2-116.5
		c-68.7,0-128.7,34.3-170.4,66.2L61.3,961.2c60.1-45.4,153.3-82.1,261.1-82.1c180.2,0,279.5,105.4,279.5,250.1
		c0,133.6-96.9,240.3-212.1,343.3l-73.6,61.3v2.5h300.4v153.3H51.5V1689.5z"/>
</g>
<g enable-background="new    ">
	<path fill="#231F20" d="M2183.5,923.2c0,51.5-39.2,93.2-100.5,93.2c-58.8,0-98.1-41.7-96.9-93.2c-1.2-53.9,38-94.4,98.1-94.4
		C2144.3,828.8,2182.3,869.3,2183.5,923.2z M1991.1,1689.5V1090h186.4v599.5H1991.1z"/>
</g>
<g enable-background="new    ">
	<path fill="#231F20" d="M2308.4,1526.4c34.3,20.8,105.4,45.4,160.6,45.4c56.4,0,79.7-19.6,79.7-50.3s-18.4-45.4-88.3-68.7
		c-123.8-41.7-171.6-109.1-170.4-180.2c0-111.6,95.6-196.2,244-196.2c69.9,0,132.4,15.9,169.2,34.3l-33.1,128.7
		c-27-14.7-78.5-34.3-130-34.3c-45.4,0-71.1,18.4-71.1,49c0,28.2,23.3,42.9,96.9,68.7c114,39.2,161.8,96.9,163.1,185.1
		c0,111.6-88.3,193.7-259.9,193.7c-78.5,0-148.3-17.2-193.7-41.7L2308.4,1526.4z"/>
</g>
<g enable-background="new    ">
	<path fill="#231F20" d="M3026.4,918.3V1090H3160v137.3h-133.6v217c0,72.3,17.2,105.4,73.6,105.4c23.3,0,41.7-2.5,55.2-4.9l1.2,141
		c-24.5,9.8-68.7,15.9-121.4,15.9c-60.1,0-110.3-20.8-139.8-51.5c-34.3-35.6-51.5-93.2-51.5-177.8v-245.2H2764V1090h79.7V960
		L3026.4,918.3z"/>
</g>
<path fill="#231F20" d="M2355.8,2353.6c-149.1,0-293.8-29.1-430-86.6c-65.5-27.6-128.6-61.8-187.7-101.6
	c-58.5-39.4-113.5-84.7-163.5-134.5c-50-49.8-95.4-104.7-134.9-163c-39.9-58.9-74.2-121.9-101.9-187.3
	c-57.7-136-86.9-280.3-86.9-429.1s29.2-293.2,86.9-429.1c27.7-65.3,62-128.3,101.9-187.3c39.5-58.3,84.9-113.2,134.9-163
	c50-49.8,105-95.1,163.5-134.5c59.1-39.8,122.2-74,187.7-101.6c136.3-57.5,280.9-86.6,430-86.6s293.8,29.1,430,86.6
	c65.5,27.6,128.6,61.8,187.7,101.6C3032,377,3087,422.2,3137,472.1c50,49.8,95.4,104.7,134.9,163c39.9,58.9,74.2,121.9,101.9,187.3
	c57.7,136,86.9,280.3,86.9,429.1s-29.2,293.2-86.9,429.1c-27.7,65.3-62,128.3-101.9,187.3c-39.5,58.3-84.9,113.2-134.9,163
	c-50,49.8-105,95.1-163.5,134.5c-59.1,39.8-122.2,74-187.7,101.6C2649.5,2324.5,2504.9,2353.6,2355.8,2353.6z M2355.8,324.3
	c-125.6,0-247.4,24.5-362,72.9C1883,443.9,1783.5,510.8,1698.1,596c-85.4,85.2-152.5,184.3-199.3,294.7
	c-48.4,114.2-73,235.6-73,360.8s24.6,246.6,73,360.8c46.8,110.4,113.9,209.5,199.3,294.7c85.4,85.2,184.9,152.1,295.6,198.8
	c114.6,48.3,236.4,72.9,362,72.9s247.4-24.5,362-72.9c110.7-46.7,210.2-113.6,295.6-198.8c85.4-85.2,152.5-184.3,199.3-294.7
	c48.4-114.2,73-235.6,73-360.8s-24.6-246.6-73-360.8c-46.8-110.4-113.9-209.5-199.3-294.7c-85.4-85.2-184.9-152.1-295.6-198.8
	C2603.2,348.8,2481.4,324.3,2355.8,324.3z"/>
</svg>
